<?xml version="1.0" encoding="utf-8"?>
<svg viewBox="47.462 76.976 269.659 269.659" xmlns="http://www.w3.org/2000/svg">
  <path d="M 109.2 -4 L 9.22 -4 C 1.915 -4 -4 1.927 -4 9.22 L -4 109.194 C -4 116.499 1.921 122.423 9.22 122.423 L 109.2 122.423 C 116.505 122.423 122.422 116.499 122.422 109.194 L 122.422 9.226 C 122.422 1.927 116.499 -4 109.2 -4 Z" transform="matrix(1, 0, 0, 1, 51.462177, 80.976059)"/>
  <path d="M 252.443 -4 L 152.463 -4 C 145.167 -4 139.237 1.927 139.237 9.22 L 139.237 109.194 C 139.237 116.499 145.173 122.423 152.463 122.423 L 252.443 122.423 C 259.745 122.423 265.659 116.499 265.659 109.194 L 265.659 9.226 C 265.659 1.927 259.738 -4 252.443 -4 Z" transform="matrix(1, 0, 0, 1, 51.462177, 80.976059)"/>
  <path d="M 109.2 139.24 L 9.22 139.24 C 1.915 139.24 -4 145.161 -4 152.463 L -4 252.442 C -4 259.744 1.921 265.659 9.22 265.659 L 109.2 265.659 C 116.505 265.659 122.422 259.744 122.422 252.442 L 122.422 152.463 C 122.422 145.161 116.499 139.24 109.2 139.24 Z" transform="matrix(1, 0, 0, 1, 51.462177, 80.976059)"/>
  <path d="M 252.443 139.24 L 152.463 139.24 C 145.167 139.24 139.237 145.161 139.237 152.463 L 139.237 252.442 C 139.237 259.744 145.173 265.659 152.463 265.659 L 252.443 265.659 C 259.745 265.659 265.659 259.744 265.659 252.442 L 265.659 152.463 C 265.659 145.161 259.738 139.24 252.443 139.24 Z" transform="matrix(1, 0, 0, 1, 51.462177, 80.976059)"/>
</svg>