<?xml version="1.0" encoding="utf-8"?>
<svg viewBox="99.983 102.596 245.159 214.585" xmlns="http://www.w3.org/2000/svg">
  <defs>
    <clipPath id="clip1">
      <path d="M 601 376 L 1908 376 L 1908 1520 L 601 1520 Z M 601 376 "/>
    </clipPath>
    <clipPath id="clip2">
      <path d="M 1653.699219 1211.601563 C 1653.699219 1211.601563 1667.320313 1232 1701.339844 1232 C 1739.871094 1232 1804.460938 1207.058594 1907.628906 1097.121094 C 1907.628906 1097.121094 1797.679688 1347.601563 1570.980469 1482.46875 L 1446.289063 1377.078125 L 1442.898438 1374.808594 L 1306.878906 1519.878906 C 1306.878906 1519.878906 998.585938 1492.671875 869.367188 1305.671875 C 869.367188 1305.671875 889.765625 1313.609375 911.300781 1313.609375 C 937.375 1314.730469 965.703125 1304.539063 965.703125 1261.46875 L 965.703125 820.578125 C 965.703125 797.910156 949.84375 772.96875 915.839844 772.96875 C 885.238281 774.101563 841.019531 794.5 780.960938 855.71875 C 655.144531 986.058594 604.144531 1110.730469 604.144531 1110.730469 C 604.144531 1110.730469 567.867188 931.648438 757.152344 714.039063 C 946.4375 496.429688 1089.25 417.078125 1242.28125 376.28125 C 1242.28125 376.28125 1121 447.679688 1121 554.230469 C 1121 585.96875 1125.53125 606.371094 1132.328125 621.089844 C 1141.398438 639.238281 1155 646.03125 1167.46875 646.03125 C 1177.671875 646.03125 1187.871094 641.488281 1195.800781 635.828125 L 1195.800781 1215.011719 C 1195.800781 1215.011719 1199.210938 1224.070313 1207.140625 1235.410156 C 1219.609375 1251.269531 1241.140625 1270.550781 1277.421875 1270.550781 C 1337.480469 1270.550781 1415.691406 1201.398438 1415.691406 1201.398438 L 1415.691406 732.171875 C 1415.691406 684.558594 1380.550781 626.769531 1344.289063 607.5 C 1344.289063 607.5 1421.351563 602.960938 1458.78125 632.429688 C 1458.78125 632.429688 1585.71875 479.421875 1819.199219 432.960938 C 1819.199219 432.960938 1694.53125 581.429688 1654.851563 655.101563 C 1648.039063 656.230469 1646.921875 794.5 1648.039063 933.921875 C 1649.191406 1067.660156 1651.460938 1202.539063 1653.699219 1211.601563 Z M 1653.699219 1211.601563 "/>
    </clipPath>
  </defs>
  <g clip-path="url(#clip1)" clip-rule="nonzero" style="" transform="matrix(0.187574, 0, 0, 0.187574, -12.748535, 32.068237)">
    <g clip-path="url(#clip2)" clip-rule="evenodd">
      <path style=" stroke:none;fill-rule:nonzero;fill-opacity:1;" d="M 587.136719 362.679688 L 1920.070313 362.679688 L 1920.070313 1534.621094 L 587.136719 1534.621094 L 587.136719 362.679688 "/>
    </g>
  </g>
</svg>